<?xml version="1.0" encoding="UTF-8" standalone="no"?>
<!DOCTYPE svg PUBLIC "-//W3C//DTD SVG 1.1//EN"
 "http://www.w3.org/Graphics/SVG/1.1/DTD/svg11.dtd">
<!-- Generated by graphviz version 12.2.1 (20241206.2353)
 -->
<!-- Title: dependency&#45;cruiser output Pages: 1 -->
<svg width="658pt" height="900pt"
 viewBox="0.00 0.00 658.00 899.63" xmlns="http://www.w3.org/2000/svg" xmlns:xlink="http://www.w3.org/1999/xlink">
<g id="graph0" class="graph" transform="scale(1 1) rotate(0) translate(4 895.63)">
<title>dependency&#45;cruiser output</title>
<polygon fill="white" stroke="none" points="-4,4 -4,-895.63 654,-895.63 654,4 -4,4"/>
<g id="clust1" class="cluster">
<title>cluster_node_modules</title>
<path fill="#ffffff" stroke="black" stroke-width="2" d="M440,-26.63C440,-26.63 516.25,-26.63 516.25,-26.63 522.25,-26.63 528.25,-32.63 528.25,-38.63 528.25,-38.63 528.25,-160.63 528.25,-160.63 528.25,-166.63 522.25,-172.63 516.25,-172.63 516.25,-172.63 440,-172.63 440,-172.63 434,-172.63 428,-166.63 428,-160.63 428,-160.63 428,-38.63 428,-38.63 428,-32.63 434,-26.63 440,-26.63"/>
<text text-anchor="middle" x="478.12" y="-160.08" font-family="Helvetica,sans-Serif" font-weight="bold" font-size="9.00">node_modules</text>
</g>
<g id="clust2" class="cluster">
<title>cluster_src</title>
<path fill="#ffffff" stroke="black" stroke-width="2" d="M20,-180.63C20,-180.63 630,-180.63 630,-180.63 636,-180.63 642,-186.63 642,-192.63 642,-192.63 642,-871.63 642,-871.63 642,-877.63 636,-883.63 630,-883.63 630,-883.63 20,-883.63 20,-883.63 14,-883.63 8,-877.63 8,-871.63 8,-871.63 8,-192.63 8,-192.63 8,-186.63 14,-180.63 20,-180.63"/>
<text text-anchor="middle" x="325" y="-871.08" font-family="Helvetica,sans-Serif" font-weight="bold" font-size="9.00">src</text>
</g>
<g id="clust3" class="cluster">
<title>cluster_src/components</title>
<path fill="#ffffff" stroke="black" stroke-width="2" d="M324.38,-493.63C324.38,-493.63 622,-493.63 622,-493.63 628,-493.63 634,-499.63 634,-505.63 634,-505.63 634,-844.63 634,-844.63 634,-850.63 628,-856.63 622,-856.63 622,-856.63 324.38,-856.63 324.38,-856.63 318.38,-856.63 312.38,-850.63 312.38,-844.63 312.38,-844.63 312.38,-505.63 312.38,-505.63 312.38,-499.63 318.38,-493.63 324.38,-493.63"/>
<text text-anchor="middle" x="473.19" y="-844.08" font-family="Helvetica,sans-Serif" font-weight="bold" font-size="9.00">components</text>
</g>
<g id="clust4" class="cluster">
<title>cluster_src/components/API&#45;calls</title>
<path fill="#ffffff" stroke="black" stroke-width="2" d="M336.25,-501.63C336.25,-501.63 382.25,-501.63 382.25,-501.63 388.25,-501.63 394.25,-507.63 394.25,-513.63 394.25,-513.63 394.25,-573.63 394.25,-573.63 394.25,-579.63 388.25,-585.63 382.25,-585.63 382.25,-585.63 336.25,-585.63 336.25,-585.63 330.25,-585.63 324.25,-579.63 324.25,-573.63 324.25,-573.63 324.25,-513.63 324.25,-513.63 324.25,-507.63 330.25,-501.63 336.25,-501.63"/>
<text text-anchor="middle" x="359.25" y="-573.08" font-family="Helvetica,sans-Serif" font-weight="bold" font-size="9.00">API&#45;calls</text>
</g>
<g id="clust5" class="cluster">
<title>cluster_src/components/CounterApp</title>
<path fill="#ffffff" stroke="black" stroke-width="2" d="M332.38,-593.63C332.38,-593.63 506.12,-593.63 506.12,-593.63 512.12,-593.63 518.12,-599.63 518.12,-605.63 518.12,-605.63 518.12,-634.63 518.12,-634.63 518.12,-640.63 512.12,-646.63 506.12,-646.63 506.12,-646.63 332.38,-646.63 332.38,-646.63 326.38,-646.63 320.38,-640.63 320.38,-634.63 320.38,-634.63 320.38,-605.63 320.38,-605.63 320.38,-599.63 326.38,-593.63 332.38,-593.63"/>
<text text-anchor="middle" x="419.25" y="-634.08" font-family="Helvetica,sans-Serif" font-weight="bold" font-size="9.00">CounterApp</text>
</g>
<g id="clust6" class="cluster">
<title>cluster_src/components/TicTacToe</title>
<path fill="#ffffff" stroke="black" stroke-width="2" d="M336.25,-654.63C336.25,-654.63 501.25,-654.63 501.25,-654.63 507.25,-654.63 513.25,-660.63 513.25,-666.63 513.25,-666.63 513.25,-695.63 513.25,-695.63 513.25,-701.63 507.25,-707.63 501.25,-707.63 501.25,-707.63 336.25,-707.63 336.25,-707.63 330.25,-707.63 324.25,-701.63 324.25,-695.63 324.25,-695.63 324.25,-666.63 324.25,-666.63 324.25,-660.63 330.25,-654.63 336.25,-654.63"/>
<text text-anchor="middle" x="418.75" y="-695.08" font-family="Helvetica,sans-Serif" font-weight="bold" font-size="9.00">TicTacToe</text>
</g>
<g id="clust7" class="cluster">
<title>cluster_src/components/TodoApp</title>
<path fill="#ffffff" stroke="black" stroke-width="2" d="M336.25,-715.63C336.25,-715.63 614,-715.63 614,-715.63 620,-715.63 626,-721.63 626,-727.63 626,-727.63 626,-817.63 626,-817.63 626,-823.63 620,-829.63 614,-829.63 614,-829.63 336.25,-829.63 336.25,-829.63 330.25,-829.63 324.25,-823.63 324.25,-817.63 324.25,-817.63 324.25,-727.63 324.25,-727.63 324.25,-721.63 330.25,-715.63 336.25,-715.63"/>
<text text-anchor="middle" x="475.12" y="-817.08" font-family="Helvetica,sans-Serif" font-weight="bold" font-size="9.00">TodoApp</text>
</g>
<g id="clust8" class="cluster">
<title>cluster_src/components/TodoApp/TodoItem</title>
<path fill="#ffffff" stroke="black" stroke-width="2" d="M448.62,-749.63C448.62,-749.63 606,-749.63 606,-749.63 612,-749.63 618,-755.63 618,-761.63 618,-761.63 618,-790.63 618,-790.63 618,-796.63 612,-802.63 606,-802.63 606,-802.63 448.62,-802.63 448.62,-802.63 442.62,-802.63 436.62,-796.63 436.62,-790.63 436.62,-790.63 436.62,-761.63 436.62,-761.63 436.62,-755.63 442.62,-749.63 448.62,-749.63"/>
<text text-anchor="middle" x="527.31" y="-790.08" font-family="Helvetica,sans-Serif" font-weight="bold" font-size="9.00">TodoItem</text>
</g>
<g id="clust9" class="cluster">
<title>cluster_src/pages</title>
<path fill="#ffffff" stroke="black" stroke-width="2" d="M199.25,-188.63C199.25,-188.63 408,-188.63 408,-188.63 414,-188.63 420,-194.63 420,-200.63 420,-200.63 420,-473.63 420,-473.63 420,-479.63 414,-485.63 408,-485.63 408,-485.63 199.25,-485.63 199.25,-485.63 193.25,-485.63 187.25,-479.63 187.25,-473.63 187.25,-473.63 187.25,-200.63 187.25,-200.63 187.25,-194.63 193.25,-188.63 199.25,-188.63"/>
<text text-anchor="middle" x="303.62" y="-473.08" font-family="Helvetica,sans-Serif" font-weight="bold" font-size="9.00">pages</text>
</g>
<g id="clust10" class="cluster">
<title>cluster_src/pages/API_caller</title>
<path fill="#ffffff" stroke="black" stroke-width="2" d="M214.75,-405.63C214.75,-405.63 279,-405.63 279,-405.63 285,-405.63 291,-411.63 291,-417.63 291,-417.63 291,-446.63 291,-446.63 291,-452.63 285,-458.63 279,-458.63 279,-458.63 214.75,-458.63 214.75,-458.63 208.75,-458.63 202.75,-452.63 202.75,-446.63 202.75,-446.63 202.75,-417.63 202.75,-417.63 202.75,-411.63 208.75,-405.63 214.75,-405.63"/>
<text text-anchor="middle" x="246.88" y="-446.08" font-family="Helvetica,sans-Serif" font-weight="bold" font-size="9.00">API_caller</text>
</g>
<g id="clust11" class="cluster">
<title>cluster_src/pages/Counter_App</title>
<path fill="#ffffff" stroke="black" stroke-width="2" d="M211.38,-344.63C211.38,-344.63 282.38,-344.63 282.38,-344.63 288.38,-344.63 294.38,-350.63 294.38,-356.63 294.38,-356.63 294.38,-385.63 294.38,-385.63 294.38,-391.63 288.38,-397.63 282.38,-397.63 282.38,-397.63 211.38,-397.63 211.38,-397.63 205.38,-397.63 199.38,-391.63 199.38,-385.63 199.38,-385.63 199.38,-356.63 199.38,-356.63 199.38,-350.63 205.38,-344.63 211.38,-344.63"/>
<text text-anchor="middle" x="246.88" y="-385.08" font-family="Helvetica,sans-Serif" font-weight="bold" font-size="9.00">Counter_App</text>
</g>
<g id="clust12" class="cluster">
<title>cluster_src/pages/TicTacToe</title>
<path fill="#ffffff" stroke="black" stroke-width="2" d="M207.25,-283.63C207.25,-283.63 286.5,-283.63 286.5,-283.63 292.5,-283.63 298.5,-289.63 298.5,-295.63 298.5,-295.63 298.5,-324.63 298.5,-324.63 298.5,-330.63 292.5,-336.63 286.5,-336.63 286.5,-336.63 207.25,-336.63 207.25,-336.63 201.25,-336.63 195.25,-330.63 195.25,-324.63 195.25,-324.63 195.25,-295.63 195.25,-295.63 195.25,-289.63 201.25,-283.63 207.25,-283.63"/>
<text text-anchor="middle" x="246.88" y="-324.08" font-family="Helvetica,sans-Serif" font-weight="bold" font-size="9.00">TicTacToe</text>
</g>
<g id="clust13" class="cluster">
<title>cluster_src/pages/Todo_List</title>
<path fill="#ffffff" stroke="black" stroke-width="2" d="M218.88,-222.63C218.88,-222.63 274.88,-222.63 274.88,-222.63 280.88,-222.63 286.88,-228.63 286.88,-234.63 286.88,-234.63 286.88,-263.63 286.88,-263.63 286.88,-269.63 280.88,-275.63 274.88,-275.63 274.88,-275.63 218.88,-275.63 218.88,-275.63 212.88,-275.63 206.88,-269.63 206.88,-263.63 206.88,-263.63 206.88,-234.63 206.88,-234.63 206.88,-228.63 212.88,-222.63 218.88,-222.63"/>
<text text-anchor="middle" x="246.88" y="-263.08" font-family="Helvetica,sans-Serif" font-weight="bold" font-size="9.00">Todo_List</text>
</g>
<g id="clust14" class="cluster">
<title>cluster_src/pages/style</title>
<path fill="#ffffff" stroke="black" stroke-width="2" d="M318.5,-318.63C318.5,-318.63 400,-318.63 400,-318.63 406,-318.63 412,-324.63 412,-330.63 412,-330.63 412,-390.63 412,-390.63 412,-396.63 406,-402.63 400,-402.63 400,-402.63 318.5,-402.63 318.5,-402.63 312.5,-402.63 306.5,-396.63 306.5,-390.63 306.5,-390.63 306.5,-330.63 306.5,-330.63 306.5,-324.63 312.5,-318.63 318.5,-318.63"/>
<text text-anchor="middle" x="359.25" y="-390.08" font-family="Helvetica,sans-Serif" font-weight="bold" font-size="9.00">style</text>
</g>
<g id="clust15" class="cluster">
<title>cluster_src/routes</title>
<path fill="#ffffff" stroke="black" stroke-width="2" d="M100,-218.63C100,-218.63 167.25,-218.63 167.25,-218.63 173.25,-218.63 179.25,-224.63 179.25,-230.63 179.25,-230.63 179.25,-259.63 179.25,-259.63 179.25,-265.63 173.25,-271.63 167.25,-271.63 167.25,-271.63 100,-271.63 100,-271.63 94,-271.63 88,-265.63 88,-259.63 88,-259.63 88,-230.63 88,-230.63 88,-224.63 94,-218.63 100,-218.63"/>
<text text-anchor="middle" x="133.62" y="-259.08" font-family="Helvetica,sans-Serif" font-weight="bold" font-size="9.00">routes</text>
</g>
<!-- node_modules/axios -->
<g id="node1" class="node">
<title>node_modules/axios</title>
<g id="a_node1"><a xlink:href="https://www.npmjs.com/package/axios" xlink:title="axios">
<polygon fill="#c40b0a" fill-opacity="0.101961" stroke="black" points="505.12,-145.88 453.18,-145.88 451.12,-143.83 451.12,-127.38 503.07,-127.38 505.12,-129.44 505.12,-145.88"/>
<polyline fill="none" stroke="black" points="503.07,-143.83 451.12,-143.83"/>
<polyline fill="none" stroke="black" points="503.07,-143.83 503.07,-127.38"/>
<polyline fill="none" stroke="black" points="503.07,-143.83 505.12,-145.88"/>
<text text-anchor="start" x="467.25" y="-133.33" font-family="Helvetica,sans-Serif" font-size="9.00" fill="#c40b0a">axios</text>
</a>
</g>
</g>
<!-- node_modules/react -->
<g id="node2" class="node">
<title>node_modules/react</title>
<g id="a_node2"><a xlink:href="https://www.npmjs.com/package/react" xlink:title="react">
<polygon fill="#c40b0a" fill-opacity="0.101961" stroke="black" points="505.12,-114.88 453.18,-114.88 451.12,-112.83 451.12,-96.38 503.07,-96.38 505.12,-98.44 505.12,-114.88"/>
<polyline fill="none" stroke="black" points="503.07,-112.83 451.12,-112.83"/>
<polyline fill="none" stroke="black" points="503.07,-112.83 503.07,-96.38"/>
<polyline fill="none" stroke="black" points="503.07,-112.83 505.12,-114.88"/>
<text text-anchor="start" x="468" y="-102.33" font-family="Helvetica,sans-Serif" font-size="9.00" fill="#c40b0a">react</text>
</a>
</g>
</g>
<!-- node_modules/react&#45;dom -->
<g id="node3" class="node">
<title>node_modules/react&#45;dom</title>
<g id="a_node3"><a xlink:href="https://www.npmjs.com/package/react-dom" xlink:title="react&#45;dom">
<polygon fill="#c40b0a" fill-opacity="0.101961" stroke="black" points="506.75,-52.88 451.56,-52.88 449.5,-50.83 449.5,-34.38 504.69,-34.38 506.75,-36.44 506.75,-52.88"/>
<polyline fill="none" stroke="black" points="504.69,-50.83 449.5,-50.83"/>
<polyline fill="none" stroke="black" points="504.69,-50.83 504.69,-34.38"/>
<polyline fill="none" stroke="black" points="504.69,-50.83 506.75,-52.88"/>
<text text-anchor="start" x="457.5" y="-40.33" font-family="Helvetica,sans-Serif" font-size="9.00" fill="#c40b0a">react&#45;dom</text>
</a>
</g>
</g>
<!-- node_modules/react&#45;router&#45;dom -->
<g id="node4" class="node">
<title>node_modules/react&#45;router&#45;dom</title>
<g id="a_node4"><a xlink:href="https://www.npmjs.com/package/react-router-dom" xlink:title="react&#45;router&#45;dom">
<polygon fill="#c40b0a" fill-opacity="0.101961" stroke="black" points="520.25,-83.88 438.06,-83.88 436,-81.83 436,-65.38 518.19,-65.38 520.25,-67.44 520.25,-83.88"/>
<polyline fill="none" stroke="black" points="518.19,-81.83 436,-81.83"/>
<polyline fill="none" stroke="black" points="518.19,-81.83 518.19,-65.38"/>
<polyline fill="none" stroke="black" points="518.19,-81.83 520.25,-83.88"/>
<text text-anchor="start" x="444" y="-71.33" font-family="Helvetica,sans-Serif" font-size="9.00" fill="#c40b0a">react&#45;router&#45;dom</text>
</a>
</g>
</g>
<!-- src/App.tsx -->
<g id="node5" class="node">
<title>src/App.tsx</title>
<g id="a_node5"><a xlink:href="src/App.tsx" xlink:title="App.tsx">
<path fill="#bbfeff" stroke="black" d="M68.83,-237.88C68.83,-237.88 27.17,-237.88 27.17,-237.88 24.08,-237.88 21,-234.8 21,-231.71 21,-231.71 21,-225.55 21,-225.55 21,-222.46 24.08,-219.38 27.17,-219.38 27.17,-219.38 68.83,-219.38 68.83,-219.38 71.92,-219.38 75,-222.46 75,-225.55 75,-225.55 75,-231.71 75,-231.71 75,-234.8 71.92,-237.88 68.83,-237.88"/>
<text text-anchor="start" x="33" y="-225.33" font-family="Helvetica,sans-Serif" font-size="9.00">App.tsx</text>
</a>
</g>
</g>
<!-- src/App.tsx&#45;&gt;node_modules/react -->
<g id="edge2" class="edge">
<title>src/App.tsx&#45;&gt;node_modules/react</title>
<path fill="none" stroke="#000000" stroke-opacity="0.200000" d="M72.92,-219.02C75.57,-217.2 78.03,-215.08 80,-212.63 88.65,-201.88 77.93,-192.06 88,-182.63 114.09,-158.19 353.9,-122.73 443.53,-110.22"/>
<polygon fill="#000000" fill-opacity="0.200000" stroke="#000000" stroke-opacity="0.200000" points="443.58,-112.33 449.23,-109.42 443,-108.17 443.58,-112.33"/>
</g>
<!-- src/App.tsx&#45;&gt;node_modules/react&#45;router&#45;dom -->
<g id="edge3" class="edge">
<title>src/App.tsx&#45;&gt;node_modules/react&#45;router&#45;dom</title>
<path fill="none" stroke="#000000" stroke-opacity="0.200000" d="M73.53,-219.04C76.02,-217.23 78.26,-215.11 80,-212.63 95.72,-190.26 70.08,-172.29 88,-151.63 173.19,-53.41 344.38,-58.18 428.38,-67.46"/>
<polygon fill="#000000" fill-opacity="0.200000" stroke="#000000" stroke-opacity="0.200000" points="428.03,-69.53 434.23,-68.13 428.51,-65.36 428.03,-69.53"/>
</g>
<!-- src/routes/AppRoutes.tsx -->
<g id="node6" class="node">
<title>src/routes/AppRoutes.tsx</title>
<g id="a_node6"><a xlink:href="src/routes/AppRoutes.tsx" xlink:title="AppRoutes.tsx">
<path fill="#bbfeff" stroke="black" d="M165.08,-244.88C165.08,-244.88 102.17,-244.88 102.17,-244.88 99.08,-244.88 96,-241.8 96,-238.71 96,-238.71 96,-232.55 96,-232.55 96,-229.46 99.08,-226.38 102.17,-226.38 102.17,-226.38 165.08,-226.38 165.08,-226.38 168.17,-226.38 171.25,-229.46 171.25,-232.55 171.25,-232.55 171.25,-238.71 171.25,-238.71 171.25,-241.8 168.17,-244.88 165.08,-244.88"/>
<text text-anchor="start" x="104" y="-232.33" font-family="Helvetica,sans-Serif" font-size="9.00">AppRoutes.tsx</text>
</a>
</g>
</g>
<!-- src/App.tsx&#45;&gt;src/routes/AppRoutes.tsx -->
<g id="edge1" class="edge">
<title>src/App.tsx&#45;&gt;src/routes/AppRoutes.tsx</title>
<path fill="none" stroke="#000000" stroke-width="2" stroke-opacity="0.200000" d="M75.46,-230.85C79.07,-231.15 82.85,-231.46 86.68,-231.78"/>
<polygon fill="#000000" fill-opacity="0.200000" stroke="#000000" stroke-width="2" stroke-opacity="0.200000" points="86.47,-233.87 92.63,-232.28 86.82,-229.69 86.47,-233.87"/>
</g>
<!-- src/routes/AppRoutes.tsx&#45;&gt;node_modules/react&#45;router&#45;dom -->
<g id="edge39" class="edge">
<title>src/routes/AppRoutes.tsx&#45;&gt;node_modules/react&#45;router&#45;dom</title>
<path fill="none" stroke="#000000" stroke-opacity="0.200000" d="M171.62,-228.53C174.45,-226.93 177.05,-224.99 179.25,-222.63 190.72,-210.32 176.63,-198.68 187.25,-185.63 205.39,-163.32 400.74,-99.78 428,-90.63 431.92,-89.31 436.03,-87.95 440.12,-86.61"/>
<polygon fill="#000000" fill-opacity="0.200000" stroke="#000000" stroke-opacity="0.200000" points="440.48,-88.7 445.52,-84.83 439.17,-84.71 440.48,-88.7"/>
</g>
<!-- src/pages/API_caller/API&#45;parser.tsx -->
<g id="node19" class="node">
<title>src/pages/API_caller/API&#45;parser.tsx</title>
<g id="a_node19"><a xlink:href="src/pages/API_caller/API-parser.tsx" xlink:title="API&#45;parser.tsx">
<path fill="#bbfeff" stroke="black" d="M276.83,-431.88C276.83,-431.88 216.92,-431.88 216.92,-431.88 213.83,-431.88 210.75,-428.8 210.75,-425.71 210.75,-425.71 210.75,-419.55 210.75,-419.55 210.75,-416.46 213.83,-413.38 216.92,-413.38 216.92,-413.38 276.83,-413.38 276.83,-413.38 279.92,-413.38 283,-416.46 283,-419.55 283,-419.55 283,-425.71 283,-425.71 283,-428.8 279.92,-431.88 276.83,-431.88"/>
<text text-anchor="start" x="218.75" y="-419.33" font-family="Helvetica,sans-Serif" font-size="9.00">API&#45;parser.tsx</text>
</a>
</g>
</g>
<!-- src/routes/AppRoutes.tsx&#45;&gt;src/pages/API_caller/API&#45;parser.tsx -->
<g id="edge34" class="edge">
<title>src/routes/AppRoutes.tsx&#45;&gt;src/pages/API_caller/API&#45;parser.tsx</title>
<path fill="none" stroke="#000000" stroke-width="2" stroke-opacity="0.200000" d="M134.9,-245.27C136.2,-273.16 143.74,-354.87 187.25,-400.63 191.43,-405.02 196.57,-408.55 202.05,-411.37"/>
<polygon fill="#000000" fill-opacity="0.200000" stroke="#000000" stroke-width="2" stroke-opacity="0.200000" points="201.16,-413.27 207.5,-413.8 202.87,-409.44 201.16,-413.27"/>
</g>
<!-- src/pages/Counter_App/CounterApp.tsx -->
<g id="node20" class="node">
<title>src/pages/Counter_App/CounterApp.tsx</title>
<g id="a_node20"><a xlink:href="src/pages/Counter_App/CounterApp.tsx" xlink:title="CounterApp.tsx">
<path fill="#bbfeff" stroke="black" d="M280.21,-370.88C280.21,-370.88 213.54,-370.88 213.54,-370.88 210.46,-370.88 207.38,-367.8 207.38,-364.71 207.38,-364.71 207.38,-358.55 207.38,-358.55 207.38,-355.46 210.46,-352.38 213.54,-352.38 213.54,-352.38 280.21,-352.38 280.21,-352.38 283.29,-352.38 286.38,-355.46 286.38,-358.55 286.38,-358.55 286.38,-364.71 286.38,-364.71 286.38,-367.8 283.29,-370.88 280.21,-370.88"/>
<text text-anchor="start" x="215.38" y="-358.33" font-family="Helvetica,sans-Serif" font-size="9.00">CounterApp.tsx</text>
</a>
</g>
</g>
<!-- src/routes/AppRoutes.tsx&#45;&gt;src/pages/Counter_App/CounterApp.tsx -->
<g id="edge35" class="edge">
<title>src/routes/AppRoutes.tsx&#45;&gt;src/pages/Counter_App/CounterApp.tsx</title>
<path fill="none" stroke="#000000" stroke-width="2" stroke-opacity="0.200000" d="M136.91,-245.11C142.25,-265.3 157.41,-312.89 187.25,-339.63 190.89,-342.9 195.07,-345.69 199.47,-348.08"/>
<polygon fill="#000000" fill-opacity="0.200000" stroke="#000000" stroke-width="2" stroke-opacity="0.200000" points="198.54,-349.97 204.86,-350.66 200.35,-346.18 198.54,-349.97"/>
</g>
<!-- src/pages/Home.tsx -->
<g id="node21" class="node">
<title>src/pages/Home.tsx</title>
<g id="a_node21"><a xlink:href="src/pages/Home.tsx" xlink:title="Home.tsx">
<path fill="#bbfeff" stroke="black" d="M267.83,-214.88C267.83,-214.88 225.92,-214.88 225.92,-214.88 222.83,-214.88 219.75,-211.8 219.75,-208.71 219.75,-208.71 219.75,-202.55 219.75,-202.55 219.75,-199.46 222.83,-196.38 225.92,-196.38 225.92,-196.38 267.83,-196.38 267.83,-196.38 270.92,-196.38 274,-199.46 274,-202.55 274,-202.55 274,-208.71 274,-208.71 274,-211.8 270.92,-214.88 267.83,-214.88"/>
<text text-anchor="start" x="227.75" y="-202.33" font-family="Helvetica,sans-Serif" font-size="9.00">Home.tsx</text>
</a>
</g>
</g>
<!-- src/routes/AppRoutes.tsx&#45;&gt;src/pages/Home.tsx -->
<g id="edge36" class="edge">
<title>src/routes/AppRoutes.tsx&#45;&gt;src/pages/Home.tsx</title>
<path fill="none" stroke="#000000" stroke-width="2" stroke-opacity="0.200000" d="M168.82,-225.96C172.35,-224.87 175.88,-223.75 179.25,-222.63 182.85,-221.43 183.62,-220.74 187.25,-219.63 194.81,-217.32 203.02,-215.15 210.83,-213.25"/>
<polygon fill="#000000" fill-opacity="0.200000" stroke="#000000" stroke-width="2" stroke-opacity="0.200000" points="211.12,-215.34 216.48,-211.91 210.15,-211.25 211.12,-215.34"/>
</g>
<!-- src/pages/TicTacToe/TicTacToeApp.tsx -->
<g id="node23" class="node">
<title>src/pages/TicTacToe/TicTacToeApp.tsx</title>
<g id="a_node23"><a xlink:href="src/pages/TicTacToe/TicTacToeApp.tsx" xlink:title="TicTacToeApp.tsx">
<path fill="#bbfeff" stroke="black" d="M284.33,-309.88C284.33,-309.88 209.42,-309.88 209.42,-309.88 206.33,-309.88 203.25,-306.8 203.25,-303.71 203.25,-303.71 203.25,-297.55 203.25,-297.55 203.25,-294.46 206.33,-291.38 209.42,-291.38 209.42,-291.38 284.33,-291.38 284.33,-291.38 287.42,-291.38 290.5,-294.46 290.5,-297.55 290.5,-297.55 290.5,-303.71 290.5,-303.71 290.5,-306.8 287.42,-309.88 284.33,-309.88"/>
<text text-anchor="start" x="211.25" y="-297.33" font-family="Helvetica,sans-Serif" font-size="9.00">TicTacToeApp.tsx</text>
</a>
</g>
</g>
<!-- src/routes/AppRoutes.tsx&#45;&gt;src/pages/TicTacToe/TicTacToeApp.tsx -->
<g id="edge37" class="edge">
<title>src/routes/AppRoutes.tsx&#45;&gt;src/pages/TicTacToe/TicTacToeApp.tsx</title>
<path fill="none" stroke="#000000" stroke-width="2" stroke-opacity="0.200000" d="M144.37,-245.27C154.42,-254.77 170.89,-269.22 187.25,-278.63 193.15,-282.02 199.66,-285.07 206.15,-287.74"/>
<polygon fill="#000000" fill-opacity="0.200000" stroke="#000000" stroke-width="2" stroke-opacity="0.200000" points="205.11,-289.59 211.47,-289.82 206.64,-285.68 205.11,-289.59"/>
</g>
<!-- src/pages/Todo_List/TodoList.tsx -->
<g id="node25" class="node">
<title>src/pages/Todo_List/TodoList.tsx</title>
<g id="a_node25"><a xlink:href="src/pages/Todo_List/TodoList.tsx" xlink:title="TodoList.tsx">
<path fill="#bbfeff" stroke="black" d="M272.71,-248.88C272.71,-248.88 221.04,-248.88 221.04,-248.88 217.96,-248.88 214.88,-245.8 214.88,-242.71 214.88,-242.71 214.88,-236.55 214.88,-236.55 214.88,-233.46 217.96,-230.38 221.04,-230.38 221.04,-230.38 272.71,-230.38 272.71,-230.38 275.79,-230.38 278.88,-233.46 278.88,-236.55 278.88,-236.55 278.88,-242.71 278.88,-242.71 278.88,-245.8 275.79,-248.88 272.71,-248.88"/>
<text text-anchor="start" x="222.88" y="-236.33" font-family="Helvetica,sans-Serif" font-size="9.00">TodoList.tsx</text>
</a>
</g>
</g>
<!-- src/routes/AppRoutes.tsx&#45;&gt;src/pages/Todo_List/TodoList.tsx -->
<g id="edge38" class="edge">
<title>src/routes/AppRoutes.tsx&#45;&gt;src/pages/Todo_List/TodoList.tsx</title>
<path fill="none" stroke="#000000" stroke-width="2" stroke-opacity="0.200000" d="M171.67,-236.96C182.64,-237.36 194.7,-237.79 205.86,-238.19"/>
<polygon fill="#000000" fill-opacity="0.200000" stroke="#000000" stroke-width="2" stroke-opacity="0.200000" points="205.47,-240.28 211.54,-238.4 205.62,-236.08 205.47,-240.28"/>
</g>
<!-- src/components/API&#45;calls/Axios.tsx -->
<g id="node7" class="node">
<title>src/components/API&#45;calls/Axios.tsx</title>
<g id="a_node7"><a xlink:href="src/components/API-calls/Axios.tsx" xlink:title="Axios.tsx">
<path fill="#bbfeff" stroke="black" d="M380.08,-558.88C380.08,-558.88 338.42,-558.88 338.42,-558.88 335.33,-558.88 332.25,-555.8 332.25,-552.71 332.25,-552.71 332.25,-546.55 332.25,-546.55 332.25,-543.46 335.33,-540.38 338.42,-540.38 338.42,-540.38 380.08,-540.38 380.08,-540.38 383.17,-540.38 386.25,-543.46 386.25,-546.55 386.25,-546.55 386.25,-552.71 386.25,-552.71 386.25,-555.8 383.17,-558.88 380.08,-558.88"/>
<text text-anchor="start" x="341.25" y="-546.33" font-family="Helvetica,sans-Serif" font-size="9.00">Axios.tsx</text>
</a>
</g>
</g>
<!-- src/components/API&#45;calls/Axios.tsx&#45;&gt;node_modules/axios -->
<g id="edge4" class="edge">
<title>src/components/API&#45;calls/Axios.tsx&#45;&gt;node_modules/axios</title>
<path fill="none" stroke="#000000" stroke-opacity="0.200000" d="M386.59,-548.91C398.46,-547.18 411.66,-543.03 420,-533.63 471.09,-476.09 476.54,-222 477.08,-153.62"/>
<polygon fill="#000000" fill-opacity="0.200000" stroke="#000000" stroke-opacity="0.200000" points="479.18,-153.76 477.11,-147.74 474.98,-153.73 479.18,-153.76"/>
</g>
<!-- src/components/API&#45;calls/Axios.tsx&#45;&gt;node_modules/react -->
<g id="edge5" class="edge">
<title>src/components/API&#45;calls/Axios.tsx&#45;&gt;node_modules/react</title>
<path fill="none" stroke="#000000" stroke-opacity="0.200000" d="M386.5,-549.43C398.66,-547.86 412.12,-543.69 420,-533.63 434.11,-515.61 414.37,-140.03 428,-121.63 431.96,-116.29 437.75,-112.69 443.98,-110.29"/>
<polygon fill="#000000" fill-opacity="0.200000" stroke="#000000" stroke-opacity="0.200000" points="444.31,-112.39 449.39,-108.58 443.04,-108.38 444.31,-112.39"/>
</g>
<!-- src/components/API&#45;calls/Fetch.tsx -->
<g id="node8" class="node">
<title>src/components/API&#45;calls/Fetch.tsx</title>
<g id="a_node8"><a xlink:href="src/components/API-calls/Fetch.tsx" xlink:title="Fetch.tsx">
<path fill="#bbfeff" stroke="black" d="M380.08,-527.88C380.08,-527.88 338.42,-527.88 338.42,-527.88 335.33,-527.88 332.25,-524.8 332.25,-521.71 332.25,-521.71 332.25,-515.55 332.25,-515.55 332.25,-512.46 335.33,-509.38 338.42,-509.38 338.42,-509.38 380.08,-509.38 380.08,-509.38 383.17,-509.38 386.25,-512.46 386.25,-515.55 386.25,-515.55 386.25,-521.71 386.25,-521.71 386.25,-524.8 383.17,-527.88 380.08,-527.88"/>
<text text-anchor="start" x="341.25" y="-515.33" font-family="Helvetica,sans-Serif" font-size="9.00">Fetch.tsx</text>
</a>
</g>
</g>
<!-- src/components/API&#45;calls/Fetch.tsx&#45;&gt;node_modules/react -->
<g id="edge6" class="edge">
<title>src/components/API&#45;calls/Fetch.tsx&#45;&gt;node_modules/react</title>
<path fill="none" stroke="#000000" stroke-opacity="0.200000" d="M367.34,-508.99C380.68,-490.24 409.1,-447.05 420,-405.63 424.02,-390.37 418.55,-134.27 428,-121.63 431.98,-116.3 437.78,-112.72 444.01,-110.32"/>
<polygon fill="#000000" fill-opacity="0.200000" stroke="#000000" stroke-opacity="0.200000" points="444.34,-112.41 449.43,-108.6 443.08,-108.41 444.34,-112.41"/>
</g>
<!-- src/components/CounterApp/Counter.css -->
<g id="node9" class="node">
<title>src/components/CounterApp/Counter.css</title>
<g id="a_node9"><a xlink:href="src/components/CounterApp/Counter.css" xlink:title="Counter.css">
<path fill="#ffffcc" stroke="black" d="M503.96,-619.88C503.96,-619.88 452.29,-619.88 452.29,-619.88 449.21,-619.88 446.12,-616.8 446.12,-613.71 446.12,-613.71 446.12,-607.55 446.12,-607.55 446.12,-604.46 449.21,-601.38 452.29,-601.38 452.29,-601.38 503.96,-601.38 503.96,-601.38 507.04,-601.38 510.12,-604.46 510.12,-607.55 510.12,-607.55 510.12,-613.71 510.12,-613.71 510.12,-616.8 507.04,-619.88 503.96,-619.88"/>
<text text-anchor="start" x="454.12" y="-607.33" font-family="Helvetica,sans-Serif" font-size="9.00">Counter.css</text>
</a>
</g>
</g>
<!-- src/components/CounterApp/Counter.tsx -->
<g id="node10" class="node">
<title>src/components/CounterApp/Counter.tsx</title>
<g id="a_node10"><a xlink:href="src/components/CounterApp/Counter.tsx" xlink:title="Counter.tsx">
<path fill="#bbfeff" stroke="black" d="M383.96,-619.88C383.96,-619.88 334.54,-619.88 334.54,-619.88 331.46,-619.88 328.38,-616.8 328.38,-613.71 328.38,-613.71 328.38,-607.55 328.38,-607.55 328.38,-604.46 331.46,-601.38 334.54,-601.38 334.54,-601.38 383.96,-601.38 383.96,-601.38 387.04,-601.38 390.12,-604.46 390.12,-607.55 390.12,-607.55 390.12,-613.71 390.12,-613.71 390.12,-616.8 387.04,-619.88 383.96,-619.88"/>
<text text-anchor="start" x="336.38" y="-607.33" font-family="Helvetica,sans-Serif" font-size="9.00">Counter.tsx</text>
</a>
</g>
</g>
<!-- src/components/CounterApp/Counter.tsx&#45;&gt;node_modules/react -->
<g id="edge8" class="edge">
<title>src/components/CounterApp/Counter.tsx&#45;&gt;node_modules/react</title>
<path fill="none" stroke="#000000" stroke-opacity="0.200000" d="M390.45,-606.75C401.59,-603.7 413.15,-598.27 420,-588.63 435.03,-567.48 412.58,-142.5 428,-121.63 431.95,-116.28 437.74,-112.69 443.97,-110.28"/>
<polygon fill="#000000" fill-opacity="0.200000" stroke="#000000" stroke-opacity="0.200000" points="444.3,-112.38 449.39,-108.57 443.03,-108.38 444.3,-112.38"/>
</g>
<!-- src/components/CounterApp/Counter.tsx&#45;&gt;src/components/CounterApp/Counter.css -->
<g id="edge7" class="edge">
<title>src/components/CounterApp/Counter.tsx&#45;&gt;src/components/CounterApp/Counter.css</title>
<path fill="none" stroke="#000000" stroke-width="2" stroke-opacity="0.200000" d="M390.35,-610.63C404.6,-610.63 421.81,-610.63 437.14,-610.63"/>
<polygon fill="#000000" fill-opacity="0.200000" stroke="#000000" stroke-width="2" stroke-opacity="0.200000" points="436.88,-612.73 442.88,-610.63 436.88,-608.53 436.88,-612.73"/>
</g>
<!-- src/components/TicTacToe/Block.css -->
<g id="node11" class="node">
<title>src/components/TicTacToe/Block.css</title>
<g id="a_node11"><a xlink:href="src/components/TicTacToe/Block.css" xlink:title="Block.css">
<path fill="#ffffcc" stroke="black" d="M499.08,-680.88C499.08,-680.88 457.17,-680.88 457.17,-680.88 454.08,-680.88 451,-677.8 451,-674.71 451,-674.71 451,-668.55 451,-668.55 451,-665.46 454.08,-662.38 457.17,-662.38 457.17,-662.38 499.08,-662.38 499.08,-662.38 502.17,-662.38 505.25,-665.46 505.25,-668.55 505.25,-668.55 505.25,-674.71 505.25,-674.71 505.25,-677.8 502.17,-680.88 499.08,-680.88"/>
<text text-anchor="start" x="459" y="-668.33" font-family="Helvetica,sans-Serif" font-size="9.00">Block.css</text>
</a>
</g>
</g>
<!-- src/components/TicTacToe/Block.tsx -->
<g id="node12" class="node">
<title>src/components/TicTacToe/Block.tsx</title>
<g id="a_node12"><a xlink:href="src/components/TicTacToe/Block.tsx" xlink:title="Block.tsx">
<path fill="#bbfeff" stroke="black" d="M380.08,-680.88C380.08,-680.88 338.42,-680.88 338.42,-680.88 335.33,-680.88 332.25,-677.8 332.25,-674.71 332.25,-674.71 332.25,-668.55 332.25,-668.55 332.25,-665.46 335.33,-662.38 338.42,-662.38 338.42,-662.38 380.08,-662.38 380.08,-662.38 383.17,-662.38 386.25,-665.46 386.25,-668.55 386.25,-668.55 386.25,-674.71 386.25,-674.71 386.25,-677.8 383.17,-680.88 380.08,-680.88"/>
<text text-anchor="start" x="341.25" y="-668.33" font-family="Helvetica,sans-Serif" font-size="9.00">Block.tsx</text>
</a>
</g>
</g>
<!-- src/components/TicTacToe/Block.tsx&#45;&gt;node_modules/react -->
<g id="edge10" class="edge">
<title>src/components/TicTacToe/Block.tsx&#45;&gt;node_modules/react</title>
<path fill="none" stroke="#000000" stroke-opacity="0.200000" d="M386.74,-668.69C398.95,-665.87 412.39,-660.36 420,-649.63 436.96,-625.7 410.59,-145.24 428,-121.63 431.95,-116.28 437.73,-112.68 443.96,-110.28"/>
<polygon fill="#000000" fill-opacity="0.200000" stroke="#000000" stroke-opacity="0.200000" points="444.29,-112.37 449.38,-108.56 443.02,-108.37 444.29,-112.37"/>
</g>
<!-- src/components/TicTacToe/Block.tsx&#45;&gt;src/components/TicTacToe/Block.css -->
<g id="edge9" class="edge">
<title>src/components/TicTacToe/Block.tsx&#45;&gt;src/components/TicTacToe/Block.css</title>
<path fill="none" stroke="#000000" stroke-width="2" stroke-opacity="0.200000" d="M386.48,-671.63C402.76,-671.63 423.88,-671.63 441.64,-671.63"/>
<polygon fill="#000000" fill-opacity="0.200000" stroke="#000000" stroke-width="2" stroke-opacity="0.200000" points="441.55,-673.73 447.55,-671.63 441.55,-669.53 441.55,-673.73"/>
</g>
<!-- src/components/TodoApp/Todo.css -->
<g id="node13" class="node">
<title>src/components/TodoApp/Todo.css</title>
<g id="a_node13"><a xlink:href="src/components/TodoApp/Todo.css" xlink:title="Todo.css">
<path fill="#ffffcc" stroke="black" d="M498.96,-741.88C498.96,-741.88 457.29,-741.88 457.29,-741.88 454.21,-741.88 451.12,-738.8 451.12,-735.71 451.12,-735.71 451.12,-729.55 451.12,-729.55 451.12,-726.46 454.21,-723.38 457.29,-723.38 457.29,-723.38 498.96,-723.38 498.96,-723.38 502.04,-723.38 505.12,-726.46 505.12,-729.55 505.12,-729.55 505.12,-735.71 505.12,-735.71 505.12,-738.8 502.04,-741.88 498.96,-741.88"/>
<text text-anchor="start" x="460.12" y="-729.33" font-family="Helvetica,sans-Serif" font-size="9.00">Todo.css</text>
</a>
</g>
</g>
<!-- src/components/TodoApp/Todo.tsx -->
<g id="node14" class="node">
<title>src/components/TodoApp/Todo.tsx</title>
<g id="a_node14"><a xlink:href="src/components/TodoApp/Todo.tsx" xlink:title="Todo.tsx">
<path fill="#bbfeff" stroke="black" d="M380.08,-741.88C380.08,-741.88 338.42,-741.88 338.42,-741.88 335.33,-741.88 332.25,-738.8 332.25,-735.71 332.25,-735.71 332.25,-729.55 332.25,-729.55 332.25,-726.46 335.33,-723.38 338.42,-723.38 338.42,-723.38 380.08,-723.38 380.08,-723.38 383.17,-723.38 386.25,-726.46 386.25,-729.55 386.25,-729.55 386.25,-735.71 386.25,-735.71 386.25,-738.8 383.17,-741.88 380.08,-741.88"/>
<text text-anchor="start" x="342.38" y="-729.33" font-family="Helvetica,sans-Serif" font-size="9.00">Todo.tsx</text>
</a>
</g>
</g>
<!-- src/components/TodoApp/Todo.tsx&#45;&gt;node_modules/react -->
<g id="edge13" class="edge">
<title>src/components/TodoApp/Todo.tsx&#45;&gt;node_modules/react</title>
<path fill="none" stroke="#000000" stroke-opacity="0.200000" d="M386.74,-729.7C398.96,-726.88 412.4,-721.37 420,-710.63 438.9,-683.92 408.59,-147.98 428,-121.63 431.95,-116.27 437.73,-112.68 443.95,-110.27"/>
<polygon fill="#000000" fill-opacity="0.200000" stroke="#000000" stroke-opacity="0.200000" points="444.28,-112.37 449.37,-108.56 443.02,-108.37 444.28,-112.37"/>
</g>
<!-- src/components/TodoApp/Todo.tsx&#45;&gt;src/components/TodoApp/Todo.css -->
<g id="edge11" class="edge">
<title>src/components/TodoApp/Todo.tsx&#45;&gt;src/components/TodoApp/Todo.css</title>
<path fill="none" stroke="#000000" stroke-width="2" stroke-opacity="0.200000" d="M386.48,-732.63C402.87,-732.63 424.18,-732.63 442.02,-732.63"/>
<polygon fill="#000000" fill-opacity="0.200000" stroke="#000000" stroke-width="2" stroke-opacity="0.200000" points="441.96,-734.73 447.96,-732.63 441.96,-730.53 441.96,-734.73"/>
</g>
<!-- src/components/TodoApp/TodoItem/TodoItem.tsx -->
<g id="node15" class="node">
<title>src/components/TodoApp/TodoItem/TodoItem.tsx</title>
<g id="a_node15"><a xlink:href="src/components/TodoApp/TodoItem/TodoItem.tsx" xlink:title="TodoItem.tsx">
<path fill="#bbfeff" stroke="black" d="M505.46,-775.88C505.46,-775.88 450.79,-775.88 450.79,-775.88 447.71,-775.88 444.62,-772.8 444.62,-769.71 444.62,-769.71 444.62,-763.55 444.62,-763.55 444.62,-760.46 447.71,-757.38 450.79,-757.38 450.79,-757.38 505.46,-757.38 505.46,-757.38 508.54,-757.38 511.62,-760.46 511.62,-763.55 511.62,-763.55 511.62,-769.71 511.62,-769.71 511.62,-772.8 508.54,-775.88 505.46,-775.88"/>
<text text-anchor="start" x="452.62" y="-763.33" font-family="Helvetica,sans-Serif" font-size="9.00">TodoItem.tsx</text>
</a>
</g>
</g>
<!-- src/components/TodoApp/Todo.tsx&#45;&gt;src/components/TodoApp/TodoItem/TodoItem.tsx -->
<g id="edge12" class="edge">
<title>src/components/TodoApp/Todo.tsx&#45;&gt;src/components/TodoApp/TodoItem/TodoItem.tsx</title>
<path fill="none" stroke="#000000" stroke-width="2" stroke-opacity="0.200000" d="M386.56,-741.07C399.07,-745.01 414.27,-749.69 428,-753.63 430.55,-754.36 433.17,-755.1 435.82,-755.83"/>
<polygon fill="#000000" fill-opacity="0.200000" stroke="#000000" stroke-width="2" stroke-opacity="0.200000" points="435.04,-757.8 441.39,-757.35 436.15,-753.75 435.04,-757.8"/>
</g>
<!-- src/components/TodoApp/TodoItem/TodoItem.tsx&#45;&gt;node_modules/react -->
<g id="edge15" class="edge">
<title>src/components/TodoApp/TodoItem/TodoItem.tsx&#45;&gt;node_modules/react</title>
<path fill="none" stroke="#000000" stroke-opacity="0.200000" d="M444.37,-764.37C435.07,-761.74 426.77,-756.78 424,-747.63 419.01,-731.15 419.01,-144.11 424,-127.63 426.76,-118.5 434.8,-113.11 443.86,-109.94"/>
<polygon fill="#000000" fill-opacity="0.200000" stroke="#000000" stroke-opacity="0.200000" points="444.27,-112.01 449.47,-108.35 443.12,-107.97 444.27,-112.01"/>
</g>
<!-- src/components/TodoApp/TodoItem/TodoItems.css -->
<g id="node16" class="node">
<title>src/components/TodoApp/TodoItem/TodoItems.css</title>
<g id="a_node16"><a xlink:href="src/components/TodoApp/TodoItem/TodoItems.css" xlink:title="TodoItems.css">
<path fill="#ffffcc" stroke="black" d="M603.83,-775.88C603.83,-775.88 542.42,-775.88 542.42,-775.88 539.33,-775.88 536.25,-772.8 536.25,-769.71 536.25,-769.71 536.25,-763.55 536.25,-763.55 536.25,-760.46 539.33,-757.38 542.42,-757.38 542.42,-757.38 603.83,-757.38 603.83,-757.38 606.92,-757.38 610,-760.46 610,-763.55 610,-763.55 610,-769.71 610,-769.71 610,-772.8 606.92,-775.88 603.83,-775.88"/>
<text text-anchor="start" x="544.25" y="-763.33" font-family="Helvetica,sans-Serif" font-size="9.00">TodoItems.css</text>
</a>
</g>
</g>
<!-- src/components/TodoApp/TodoItem/TodoItem.tsx&#45;&gt;src/components/TodoApp/TodoItem/TodoItems.css -->
<g id="edge14" class="edge">
<title>src/components/TodoApp/TodoItem/TodoItem.tsx&#45;&gt;src/components/TodoApp/TodoItem/TodoItems.css</title>
<path fill="none" stroke="#000000" stroke-width="2" stroke-opacity="0.200000" d="M511.91,-766.63C516.75,-766.63 521.81,-766.63 526.84,-766.63"/>
<polygon fill="#000000" fill-opacity="0.200000" stroke="#000000" stroke-width="2" stroke-opacity="0.200000" points="526.81,-768.73 532.81,-766.63 526.81,-764.53 526.81,-768.73"/>
</g>
<!-- src/index.css -->
<g id="node17" class="node">
<title>src/index.css</title>
<g id="a_node17"><a xlink:href="src/index.css" xlink:title="index.css">
<path fill="#ffffcc" stroke="black" d="M154.58,-206.88C154.58,-206.88 112.67,-206.88 112.67,-206.88 109.58,-206.88 106.5,-203.8 106.5,-200.71 106.5,-200.71 106.5,-194.55 106.5,-194.55 106.5,-191.46 109.58,-188.38 112.67,-188.38 112.67,-188.38 154.58,-188.38 154.58,-188.38 157.67,-188.38 160.75,-191.46 160.75,-194.55 160.75,-194.55 160.75,-200.71 160.75,-200.71 160.75,-203.8 157.67,-206.88 154.58,-206.88"/>
<text text-anchor="start" x="114.5" y="-194.33" font-family="Helvetica,sans-Serif" font-size="9.00">index.css</text>
</a>
</g>
</g>
<!-- src/main.tsx -->
<g id="node18" class="node">
<title>src/main.tsx</title>
<g id="a_node18"><a xlink:href="src/main.tsx" xlink:title="main.tsx">
<path fill="#bbfeff" stroke="black" d="M68.83,-206.88C68.83,-206.88 27.17,-206.88 27.17,-206.88 24.08,-206.88 21,-203.8 21,-200.71 21,-200.71 21,-194.55 21,-194.55 21,-191.46 24.08,-188.38 27.17,-188.38 27.17,-188.38 68.83,-188.38 68.83,-188.38 71.92,-188.38 75,-191.46 75,-194.55 75,-194.55 75,-200.71 75,-200.71 75,-203.8 71.92,-206.88 68.83,-206.88"/>
<text text-anchor="start" x="31.12" y="-194.33" font-family="Helvetica,sans-Serif" font-size="9.00">main.tsx</text>
</a>
</g>
</g>
<!-- src/main.tsx&#45;&gt;node_modules/react -->
<g id="edge18" class="edge">
<title>src/main.tsx&#45;&gt;node_modules/react</title>
<path fill="none" stroke="#000000" stroke-opacity="0.200000" d="M52.19,-187.94C57.32,-174.1 68.8,-149.09 88,-137.63 203.07,-68.93 372.5,-87.26 443.69,-99.17"/>
<polygon fill="#000000" fill-opacity="0.200000" stroke="#000000" stroke-opacity="0.200000" points="442.91,-101.16 449.18,-100.11 443.62,-97.02 442.91,-101.16"/>
</g>
<!-- src/main.tsx&#45;&gt;node_modules/react&#45;dom -->
<g id="edge19" class="edge">
<title>src/main.tsx&#45;&gt;node_modules/react&#45;dom</title>
<path fill="none" stroke="#000000" stroke-opacity="0.200000" d="M50.23,-187.93C54.15,-158.6 67.33,-71.7 88,-53.63 189.17,34.8 367.93,-8.11 442.72,-31.68"/>
<polygon fill="#000000" fill-opacity="0.200000" stroke="#000000" stroke-opacity="0.200000" points="441.83,-33.6 448.18,-33.43 443.11,-29.6 441.83,-33.6"/>
</g>
<!-- src/main.tsx&#45;&gt;node_modules/react&#45;router&#45;dom -->
<g id="edge20" class="edge">
<title>src/main.tsx&#45;&gt;node_modules/react&#45;router&#45;dom</title>
<path fill="none" stroke="#000000" stroke-opacity="0.200000" d="M49.81,-188.06C52.04,-168.2 60.1,-122.5 88,-99.63 188.56,-17.22 357.24,-44.39 435.24,-63.11"/>
<polygon fill="#000000" fill-opacity="0.200000" stroke="#000000" stroke-opacity="0.200000" points="434.7,-65.14 441.03,-64.53 435.7,-61.06 434.7,-65.14"/>
</g>
<!-- src/main.tsx&#45;&gt;src/routes/AppRoutes.tsx -->
<g id="edge17" class="edge">
<title>src/main.tsx&#45;&gt;src/routes/AppRoutes.tsx</title>
<path fill="none" stroke="#000000" stroke-width="2" stroke-opacity="0.200000" d="M70.32,-207.3C73.69,-209.2 77.03,-211.33 80,-213.63 83.1,-216.04 83.52,-218.22 88.42,-221.98"/>
<polygon fill="#000000" fill-opacity="0.200000" stroke="#000000" stroke-width="2" stroke-opacity="0.200000" points="87.12,-223.64 93.3,-225.13 89.39,-220.11 87.12,-223.64"/>
</g>
<!-- src/main.tsx&#45;&gt;src/index.css -->
<g id="edge16" class="edge">
<title>src/main.tsx&#45;&gt;src/index.css</title>
<path fill="none" stroke="#000000" stroke-width="2" stroke-opacity="0.200000" d="M75.46,-197.63C82.32,-197.63 89.83,-197.63 97.08,-197.63"/>
<polygon fill="#000000" fill-opacity="0.200000" stroke="#000000" stroke-width="2" stroke-opacity="0.200000" points="97.02,-199.73 103.02,-197.63 97.02,-195.53 97.02,-199.73"/>
</g>
<!-- src/pages/API_caller/API&#45;parser.tsx&#45;&gt;node_modules/react -->
<g id="edge23" class="edge">
<title>src/pages/API_caller/API&#45;parser.tsx&#45;&gt;node_modules/react</title>
<path fill="none" stroke="#000000" stroke-opacity="0.200000" d="M283.49,-413C289.31,-409.93 294.67,-405.91 298.5,-400.63 309.64,-385.27 294.05,-329.95 306.5,-315.63 340.52,-276.5 386.89,-328.54 420,-288.63 431.86,-274.33 416.73,-136.4 428,-121.63 432,-116.39 437.74,-112.85 443.91,-110.45"/>
<polygon fill="#000000" fill-opacity="0.200000" stroke="#000000" stroke-opacity="0.200000" points="444.18,-112.56 449.25,-108.73 442.9,-108.57 444.18,-112.56"/>
</g>
<!-- src/pages/API_caller/API&#45;parser.tsx&#45;&gt;src/components/API&#45;calls/Axios.tsx -->
<g id="edge21" class="edge">
<title>src/pages/API_caller/API&#45;parser.tsx&#45;&gt;src/components/API&#45;calls/Axios.tsx</title>
<path fill="none" stroke="#000000" stroke-width="2" stroke-opacity="0.200000" d="M250.25,-432.25C256.04,-453.71 272.95,-505.81 306.5,-533.63 311.43,-537.72 317.39,-540.76 323.49,-543.03"/>
<polygon fill="#000000" fill-opacity="0.200000" stroke="#000000" stroke-width="2" stroke-opacity="0.200000" points="322.58,-544.94 328.93,-544.75 323.85,-540.94 322.58,-544.94"/>
</g>
<!-- src/pages/API_caller/API&#45;parser.tsx&#45;&gt;src/components/API&#45;calls/Fetch.tsx -->
<g id="edge22" class="edge">
<title>src/pages/API_caller/API&#45;parser.tsx&#45;&gt;src/components/API&#45;calls/Fetch.tsx</title>
<path fill="none" stroke="#000000" stroke-width="2" stroke-opacity="0.200000" d="M258.86,-432.19C278.03,-448.86 317.75,-483.4 340.75,-503.41"/>
<polygon fill="#000000" fill-opacity="0.200000" stroke="#000000" stroke-width="2" stroke-opacity="0.200000" points="339.12,-504.77 345.02,-507.13 341.87,-501.6 339.12,-504.77"/>
</g>
<!-- src/pages/Counter_App/CounterApp.tsx&#45;&gt;node_modules/react -->
<g id="edge25" class="edge">
<title>src/pages/Counter_App/CounterApp.tsx&#45;&gt;node_modules/react</title>
<path fill="none" stroke="#000000" stroke-opacity="0.200000" d="M282.91,-351.88C288.85,-348.82 294.41,-344.83 298.5,-339.63 311.33,-323.32 292.54,-308.98 306.5,-293.63 341.69,-254.95 387.1,-303.28 420,-262.63 439.74,-238.24 408.85,-146.49 428,-121.63 432.02,-116.41 437.78,-112.87 443.94,-110.47"/>
<polygon fill="#000000" fill-opacity="0.200000" stroke="#000000" stroke-opacity="0.200000" points="444.22,-112.59 449.29,-108.76 442.93,-108.59 444.22,-112.59"/>
</g>
<!-- src/pages/Counter_App/CounterApp.tsx&#45;&gt;src/components/CounterApp/Counter.tsx -->
<g id="edge24" class="edge">
<title>src/pages/Counter_App/CounterApp.tsx&#45;&gt;src/components/CounterApp/Counter.tsx</title>
<path fill="none" stroke="#000000" stroke-width="2" stroke-opacity="0.200000" d="M266.51,-371.31C277.93,-378.34 291.63,-388.99 298.5,-402.63 307.8,-421.11 294.72,-571.63 306.5,-588.63 309.94,-593.59 314.73,-597.44 320.03,-600.42"/>
<polygon fill="#000000" fill-opacity="0.200000" stroke="#000000" stroke-width="2" stroke-opacity="0.200000" points="318.98,-602.25 325.31,-602.91 320.78,-598.45 318.98,-602.25"/>
</g>
<!-- src/pages/Home.tsx&#45;&gt;node_modules/react -->
<g id="edge27" class="edge">
<title>src/pages/Home.tsx&#45;&gt;node_modules/react</title>
<path fill="none" stroke="#000000" stroke-opacity="0.200000" d="M274.23,-211.1C312.12,-217.26 381.63,-221.95 420,-183.63 439.66,-164 410.27,-143.02 428,-121.63 432.07,-116.72 437.68,-113.3 443.65,-110.92"/>
<polygon fill="#000000" fill-opacity="0.200000" stroke="#000000" stroke-opacity="0.200000" points="444.27,-112.93 449.31,-109.06 442.96,-108.94 444.27,-112.93"/>
</g>
<!-- src/pages/Home.tsx&#45;&gt;node_modules/react&#45;router&#45;dom -->
<g id="edge28" class="edge">
<title>src/pages/Home.tsx&#45;&gt;node_modules/react&#45;router&#45;dom</title>
<path fill="none" stroke="#000000" stroke-opacity="0.200000" d="M270.63,-195.93C317.27,-176.03 419.37,-132.41 420,-131.63 431.66,-117.18 415.7,-104.54 428,-90.63 428.71,-89.83 429.45,-89.07 430.23,-88.35"/>
<polygon fill="#000000" fill-opacity="0.200000" stroke="#000000" stroke-opacity="0.200000" points="431.11,-90.33 434.63,-85.04 428.58,-86.97 431.11,-90.33"/>
</g>
<!-- src/pages/style/Home.css -->
<g id="node22" class="node">
<title>src/pages/style/Home.css</title>
<g id="a_node22"><a xlink:href="src/pages/style/Home.css" xlink:title="Home.css">
<path fill="#ffffcc" stroke="black" d="M381.33,-344.88C381.33,-344.88 337.17,-344.88 337.17,-344.88 334.08,-344.88 331,-341.8 331,-338.71 331,-338.71 331,-332.55 331,-332.55 331,-329.46 334.08,-326.38 337.17,-326.38 337.17,-326.38 381.33,-326.38 381.33,-326.38 384.42,-326.38 387.5,-329.46 387.5,-332.55 387.5,-332.55 387.5,-338.71 387.5,-338.71 387.5,-341.8 384.42,-344.88 381.33,-344.88"/>
<text text-anchor="start" x="339" y="-332.33" font-family="Helvetica,sans-Serif" font-size="9.00">Home.css</text>
</a>
</g>
</g>
<!-- src/pages/Home.tsx&#45;&gt;src/pages/style/Home.css -->
<g id="edge26" class="edge">
<title>src/pages/Home.tsx&#45;&gt;src/pages/style/Home.css</title>
<path fill="none" stroke="#000000" stroke-width="2" stroke-opacity="0.200000" d="M274.37,-206.94C283.35,-208.77 292.58,-212.45 298.5,-219.63 313.1,-237.35 291.69,-305.09 306.5,-322.63 310.61,-327.5 316.24,-330.69 322.29,-332.75"/>
<polygon fill="#000000" fill-opacity="0.200000" stroke="#000000" stroke-width="2" stroke-opacity="0.200000" points="321.41,-334.69 327.75,-334.16 322.46,-330.63 321.41,-334.69"/>
</g>
<!-- src/pages/TicTacToe/TicTacToeApp.tsx&#45;&gt;node_modules/react -->
<g id="edge31" class="edge">
<title>src/pages/TicTacToe/TicTacToeApp.tsx&#45;&gt;node_modules/react</title>
<path fill="none" stroke="#000000" stroke-opacity="0.200000" d="M277.49,-290.89C284.79,-287.67 292.3,-283.61 298.5,-278.63 303.22,-274.85 301.53,-271.07 306.5,-267.63 349.53,-237.92 386.84,-277.07 420,-236.63 436.24,-216.82 412.24,-141.83 428,-121.63 432.05,-116.44 437.82,-112.91 443.99,-110.51"/>
<polygon fill="#000000" fill-opacity="0.200000" stroke="#000000" stroke-opacity="0.200000" points="444.27,-112.63 449.34,-108.8 442.98,-108.63 444.27,-112.63"/>
</g>
<!-- src/pages/TicTacToe/TicTacToeApp.tsx&#45;&gt;src/components/TicTacToe/Block.tsx -->
<g id="edge29" class="edge">
<title>src/pages/TicTacToe/TicTacToeApp.tsx&#45;&gt;src/components/TicTacToe/Block.tsx</title>
<path fill="none" stroke="#000000" stroke-width="2" stroke-opacity="0.200000" d="M266.59,-310.27C278.04,-317.28 291.75,-327.94 298.5,-341.63 313.64,-372.34 287.24,-621.33 306.5,-649.63 310.68,-655.78 316.96,-660.22 323.71,-663.42"/>
<polygon fill="#000000" fill-opacity="0.200000" stroke="#000000" stroke-width="2" stroke-opacity="0.200000" points="322.6,-665.24 328.95,-665.51 324.16,-661.34 322.6,-665.24"/>
</g>
<!-- src/pages/style/TicTacToeApp.css -->
<g id="node24" class="node">
<title>src/pages/style/TicTacToeApp.css</title>
<g id="a_node24"><a xlink:href="src/pages/style/TicTacToeApp.css" xlink:title="TicTacToeApp.css">
<path fill="#ffffcc" stroke="black" d="M397.83,-375.88C397.83,-375.88 320.67,-375.88 320.67,-375.88 317.58,-375.88 314.5,-372.8 314.5,-369.71 314.5,-369.71 314.5,-363.55 314.5,-363.55 314.5,-360.46 317.58,-357.38 320.67,-357.38 320.67,-357.38 397.83,-357.38 397.83,-357.38 400.92,-357.38 404,-360.46 404,-363.55 404,-363.55 404,-369.71 404,-369.71 404,-372.8 400.92,-375.88 397.83,-375.88"/>
<text text-anchor="start" x="322.5" y="-363.33" font-family="Helvetica,sans-Serif" font-size="9.00">TicTacToeApp.css</text>
</a>
</g>
</g>
<!-- src/pages/TicTacToe/TicTacToeApp.tsx&#45;&gt;src/pages/style/TicTacToeApp.css -->
<g id="edge30" class="edge">
<title>src/pages/TicTacToe/TicTacToeApp.tsx&#45;&gt;src/pages/style/TicTacToeApp.css</title>
<path fill="none" stroke="#000000" stroke-width="2" stroke-opacity="0.200000" d="M260.84,-310.19C271.37,-318.17 286.4,-330.07 298.5,-341.63 302.37,-345.33 302,-347.73 306.5,-350.63 307.92,-351.55 309.4,-352.41 310.92,-353.23"/>
<polygon fill="#000000" fill-opacity="0.200000" stroke="#000000" stroke-width="2" stroke-opacity="0.200000" points="309.73,-354.99 316.05,-355.65 311.52,-351.2 309.73,-354.99"/>
</g>
<!-- src/pages/Todo_List/TodoList.tsx&#45;&gt;node_modules/react -->
<g id="edge33" class="edge">
<title>src/pages/Todo_List/TodoList.tsx&#45;&gt;node_modules/react</title>
<path fill="none" stroke="#000000" stroke-opacity="0.200000" d="M279.08,-239.56C323.4,-238.75 401.3,-234.46 420,-214.63 434.23,-199.54 415.1,-137.88 428,-121.63 432.09,-116.47 437.88,-112.96 444.06,-110.56"/>
<polygon fill="#000000" fill-opacity="0.200000" stroke="#000000" stroke-opacity="0.200000" points="444.33,-112.68 449.4,-108.85 443.05,-108.68 444.33,-112.68"/>
</g>
<!-- src/pages/Todo_List/TodoList.tsx&#45;&gt;src/components/TodoApp/Todo.tsx -->
<g id="edge32" class="edge">
<title>src/pages/Todo_List/TodoList.tsx&#45;&gt;src/components/TodoApp/Todo.tsx</title>
<path fill="none" stroke="#000000" stroke-width="2" stroke-opacity="0.200000" d="M266.62,-249.26C278.09,-256.26 291.8,-266.91 298.5,-280.63 308.99,-302.1 293.13,-690.83 306.5,-710.63 310.7,-716.85 317.05,-721.32 323.87,-724.53"/>
<polygon fill="#000000" fill-opacity="0.200000" stroke="#000000" stroke-width="2" stroke-opacity="0.200000" points="322.84,-726.38 329.19,-726.63 324.38,-722.47 322.84,-726.38"/>
</g>
<!-- src/vite&#45;env.d.ts -->
<g id="node26" class="node">
<title>src/vite&#45;env.d.ts</title>
<g id="a_node26"><a xlink:href="src/vite-env.d.ts" xlink:title="vite&#45;env.d.ts">
<path fill="#ccffcc" stroke="black" d="M73.83,-562.88C73.83,-562.88 22.17,-562.88 22.17,-562.88 19.08,-562.88 16,-559.8 16,-556.71 16,-556.71 16,-550.55 16,-550.55 16,-547.46 19.08,-544.38 22.17,-544.38 22.17,-544.38 73.83,-544.38 73.83,-544.38 76.92,-544.38 80,-547.46 80,-550.55 80,-550.55 80,-556.71 80,-556.71 80,-559.8 76.92,-562.88 73.83,-562.88"/>
<text text-anchor="start" x="24" y="-550.33" font-family="Helvetica,sans-Serif" font-size="9.00">vite&#45;env.d.ts</text>
</a>
</g>
</g>
</g>
</svg>
